<mxfile host="app.diagrams.net" modified="2023-05-23T07:38:49.188Z" agent="Mozilla/5.0 (Windows NT 10.0; Win64; x64) AppleWebKit/537.36 (KHTML, like Gecko) Chrome/113.0.0.0 Safari/537.36" version="21.3.2" etag="jejuPURvk6YnM-vPE10q" type="github">
  <diagram name="第 1 页" id="_PLgNiFjHkXB-ONbBwdx">
    <mxGraphModel>
      <root>
        <mxCell id="0" />
        <mxCell id="1" parent="0" />
      </root>
    </mxGraphModel>
  </diagram>
</mxfile>
